<?xml version="1.0" encoding="UTF-8" standalone="no"?>
<!-- Created with Inkscape (http://www.inkscape.org/) -->

<svg
   xmlns:dc="http://purl.org/dc/elements/1.1/"
   xmlns:cc="http://creativecommons.org/ns#"
   xmlns:rdf="http://www.w3.org/1999/02/22-rdf-syntax-ns#"
   xmlns:svg="http://www.w3.org/2000/svg"
   xmlns="http://www.w3.org/2000/svg"
   xmlns:sodipodi="http://sodipodi.sourceforge.net/DTD/sodipodi-0.dtd"
   xmlns:inkscape="http://www.inkscape.org/namespaces/inkscape"
   width="744.09448819"
   height="1052.3622047"
   id="svg2"
   version="1.1"
   inkscape:version="0.48.4 r9939"
   sodipodi:docname="wordfish.svg">
  <defs
     id="defs4">
    <inkscape:path-effect
       effect="spiro"
       id="path-effect3890"
       is_visible="true" />
  </defs>
  <sodipodi:namedview
     id="base"
     pagecolor="#ffffff"
     bordercolor="#666666"
     borderopacity="1.0"
     inkscape:pageopacity="0.0"
     inkscape:pageshadow="2"
     inkscape:zoom="1.4"
     inkscape:cx="465.67216"
     inkscape:cy="606.22066"
     inkscape:document-units="px"
     inkscape:current-layer="layer1"
     showgrid="false"
     inkscape:window-width="1535"
     inkscape:window-height="876"
     inkscape:window-x="65"
     inkscape:window-y="24"
     inkscape:window-maximized="1" />
  <metadata
     id="metadata7">
    <rdf:RDF>
      <cc:Work
         rdf:about="">
        <dc:format>image/svg+xml</dc:format>
        <dc:type
           rdf:resource="http://purl.org/dc/dcmitype/StillImage" />
        <dc:title></dc:title>
      </cc:Work>
    </rdf:RDF>
  </metadata>
  <g
     inkscape:label="Layer 1"
     inkscape:groupmode="layer"
     id="layer1">
    <g
       id="g3904"
       transform="matrix(0.49178142,0.87071869,-0.87071869,0.49178142,557.22018,-76.364088)"
       inkscape:export-filename="/home/vanessa/Documents/Dropbox/Code/wordfish/wordfish-python/wordfish/static/img/wordfish.png"
       inkscape:export-xdpi="66.70713"
       inkscape:export-ydpi="66.70713">
      <path
         inkscape:export-ydpi="66.70713"
         inkscape:export-xdpi="66.70713"
         inkscape:export-filename="/home/vanessa/Desktop/logo.png"
         transform="matrix(0.53966381,-1.0942459,0.81512829,0.72445638,-164.1787,385.58655)"
         d="m 393.9595,435.15897 c 0,64.15756 -52.00998,116.16754 -116.16754,116.16754 -64.15756,0 -116.16754,-52.00998 -116.16754,-116.16754 0,-64.15757 52.00998,-116.16755 116.16754,-116.16755 64.15756,0 116.16754,52.00998 116.16754,116.16755 z"
         sodipodi:ry="116.16754"
         sodipodi:rx="116.16754"
         sodipodi:cy="435.15897"
         sodipodi:cx="277.79196"
         id="path3915"
         style="fill:#dbe2e3;fill-opacity:1;stroke:none"
         sodipodi:type="arc" />
      <g
         inkscape:export-filename="/home/vanessa/Desktop/logo.png"
         inkscape:export-ydpi="66.70713"
         inkscape:export-xdpi="66.70713"
         style="fill:#003380;fill-opacity:1"
         transform="matrix(2.6704655,0.05239048,-0.05167201,2.6338436,-975.61024,-892.07336)"
         id="g3017">
        <path
           sodipodi:nodetypes="sssssssscccccsssss"
           inkscape:connector-curvature="0"
           id="path3035"
           d="m 543.675,504.38534 c -1.56792,6.37079 -3.08172,9.84938 -6.5481,15.04697 -4.22845,6.3403 -9.29334,10.73774 -16.41189,14.24915 -7.10566,3.50504 -12.35474,4.49784 -21.07731,3.98653 -11.54825,-0.67696 -19.58319,-4.41719 -27.4829,-12.79315 -15.88168,-16.83919 -15.12937,-43.43949 1.67513,-59.22875 5.56338,-5.22729 14.05153,-9.87812 19.04126,-10.43312 3.06341,-0.34074 3.33211,-0.23497 4.01997,1.58226 1.32042,3.48837 -0.92783,9.3761 -6.75155,17.68101 -3.42241,6.50627 -10.29804,26.53682 -8.60954,33.96072 9.66138,-4.30847 18.54695,-15.83318 21.27111,-23.69586 1.64387,8.01554 14.13503,22.65031 21.02592,23.75796 2.30501,-6.52928 -6.84752,-30.77592 -8.73154,-33.79857 -6.97022,-11.14815 -8.44752,-15.09562 -6.79843,-18.16613 0.74418,-1.38561 1.2109,-1.50497 4.18479,-1.07023 3.93138,0.57472 10.36389,3.60745 15.19214,7.16263 7.12999,5.25001 13.18094,13.93349 15.34482,22.02074 1.46599,5.47892 1.7872,15.14203 0.65612,19.73784 z"
           style="fill:#003380;fill-opacity:1;stroke:none" />
      </g>
    </g>
    <path
       style="fill:#003380;fill-opacity:1;stroke:#ffffff;stroke-width:8.33724594;stroke-miterlimit:4;stroke-opacity:1;stroke-dasharray:none"
       d="m 225.61086,613.91064 c 0,0 57.28543,13.28314 86.37171,14.70146 31.70013,1.54576 63.3307,-8.04075 95.04182,-6.79806 26.0182,1.01958 77.4165,11.66726 77.4165,11.66726 l -2.9026,64.12714 c 0,0 -47.591,-16.10302 -72.15179,-17.70706 -32.11838,-2.09761 -63.94527,10.96165 -96.12033,10.71609 -30.05204,-0.22933 -89.58403,-11.37781 -89.58403,-11.37781 z"
       id="rect3102"
       inkscape:connector-curvature="0"
       sodipodi:nodetypes="cssccsscc"
       inkscape:export-filename="/home/vanessa/Desktop/flowRoot3056.png"
       inkscape:export-xdpi="66.70713"
       inkscape:export-ydpi="66.70713" />
    <flowRoot
       xml:space="preserve"
       id="flowRoot3056"
       style="font-size:40px;font-style:normal;font-weight:normal;line-height:125%;letter-spacing:0px;word-spacing:0px;fill:#ffffff;fill-opacity:1;stroke:none;font-family:Sans"
       transform="matrix(1.7504513,0,0,1.7504513,-144.31866,-94.515193)"
       inkscape:export-xdpi="66.70713"
       inkscape:export-ydpi="66.70713"><flowRegion
         id="flowRegion3058"><rect
           id="rect3060"
           width="396.98996"
           height="149.50258"
           x="221.2234"
           y="413.94577"
           style="fill:#ffffff;fill-opacity:1" /></flowRegion><flowPara
         id="flowPara3062"
         style="font-size:20.76583099px;font-style:normal;font-variant:normal;font-weight:bold;font-stretch:normal;fill:#ffffff;fill-opacity:1;font-family:Lohit Bengali;-inkscape-font-specification:Lohit Bengali Bold">WORDFISH</flowPara></flowRoot>    <path
       sodipodi:type="arc"
       style="fill:#dbe2e3;fill-opacity:1;stroke:none"
       id="path3936"
       sodipodi:cx="385.3732"
       sodipodi:cy="287.17163"
       sodipodi:rx="14.647212"
       sodipodi:ry="14.647212"
       d="m 400.02041,287.17163 a 14.647212,14.647212 0 1 1 -29.29442,0 14.647212,14.647212 0 1 1 29.29442,0 z"
       transform="matrix(0.95617605,0,0,0.95617605,-107.06569,39.95727)"
       inkscape:export-filename="/home/vanessa/Documents/Dropbox/Code/wordfish/wordfish-python/wordfish/static/img/wordfish.png"
       inkscape:export-xdpi="66.70713"
       inkscape:export-ydpi="66.70713" />
    <path
       sodipodi:type="arc"
       style="fill:#dbe2e3;fill-opacity:1;stroke:none"
       id="path3936-8"
       sodipodi:cx="385.3732"
       sodipodi:cy="287.17163"
       sodipodi:rx="14.647212"
       sodipodi:ry="14.647212"
       d="m 400.02041,287.17163 a 14.647212,14.647212 0 1 1 -29.29442,0 14.647212,14.647212 0 1 1 29.29442,0 z"
       transform="matrix(0.59359179,0,0,0.59359179,59.226375,119.45115)"
       inkscape:export-filename="/home/vanessa/Documents/Dropbox/Code/wordfish/wordfish-python/wordfish/static/img/wordfish.png"
       inkscape:export-xdpi="66.70713"
       inkscape:export-ydpi="66.70713" />
    <path
       sodipodi:type="arc"
       style="fill:#dbe2e3;fill-opacity:1;stroke:none"
       id="path3936-8-9"
       sodipodi:cx="385.3732"
       sodipodi:cy="287.17163"
       sodipodi:rx="14.647212"
       sodipodi:ry="14.647212"
       d="m 400.02041,287.17163 a 14.647212,14.647212 0 1 1 -29.29442,0 14.647212,14.647212 0 1 1 29.29442,0 z"
       transform="matrix(0.38640078,0,0,0.38640078,111.04219,167.30168)"
       inkscape:export-filename="/home/vanessa/Documents/Dropbox/Code/wordfish/wordfish-python/wordfish/static/img/wordfish.png"
       inkscape:export-xdpi="66.70713"
       inkscape:export-ydpi="66.70713" />
    <path
       sodipodi:type="arc"
       style="fill:#000000;fill-opacity:1;stroke:#ffffff;stroke-opacity:1;stroke-width:13.47727535;stroke-miterlimit:4;stroke-dasharray:none"
       id="path3936-8-3"
       sodipodi:cx="385.3732"
       sodipodi:cy="287.17163"
       sodipodi:rx="14.647212"
       sodipodi:ry="14.647212"
       d="m 400.02041,287.17163 a 14.647212,14.647212 0 1 1 -29.29442,0 14.647212,14.647212 0 1 1 29.29442,0 z"
       transform="matrix(0.59359179,0,0,0.59359179,226.82443,151.55917)"
       inkscape:export-filename="/home/vanessa/Documents/Dropbox/Code/wordfish/wordfish-python/wordfish/static/img/wordfish.png"
       inkscape:export-xdpi="66.70713"
       inkscape:export-ydpi="66.70713" />
    <path
       style="fill:none;stroke:#ffffff;stroke-width:9.18971825;stroke-linecap:butt;stroke-linejoin:miter;stroke-miterlimit:4;stroke-opacity:1;stroke-dasharray:none"
       d="m 493.70186,399.8797 c 6.67456,0.63722 13.58288,-1.89006 18.27057,-6.68394 2.83114,-2.89527 4.86037,-6.56685 5.80565,-10.5044 0.94528,-3.93756 0.804,-8.13021 -0.40422,-11.9952"
       id="path3888"
       inkscape:path-effect="#path-effect3890"
       inkscape:original-d="m 493.70186,399.8797 c 0,0 10.60678,4.83159 18.27057,-6.68394 5.41915,-8.14279 0.20417,-5.91121 5.40143,-22.4996"
       inkscape:connector-curvature="0"
       sodipodi:nodetypes="csc"
       inkscape:export-filename="/home/vanessa/Documents/Dropbox/Code/wordfish/wordfish-python/wordfish/static/img/wordfish.png"
       inkscape:export-xdpi="66.70713"
       inkscape:export-ydpi="66.70713" />
  </g>
</svg>
